<svg width="35" height="35" viewBox="0 0 35 35" fill="none" xmlns="http://www.w3.org/2000/svg">
<path d="M13.2994 31.6667H20.8991C20.8991 33.5 19.1891 35 17.0992 35C15.0093 35 13.2994 33.5 13.2994 31.6667ZM34.1985 28.3333V30H0V28.3333L3.79983 25V15C3.79983 9.83333 7.59966 5.33333 13.2994 3.83333V3.33333C13.2994 1.5 15.0093 0 17.0992 0C19.1891 0 20.8991 1.5 20.8991 3.33333V3.83333C26.5988 5.33333 30.3986 9.83333 30.3986 15V25L34.1985 28.3333ZM26.5988 15C26.5988 10.3333 22.419 6.66667 17.0992 6.66667C11.7795 6.66667 7.59966 10.3333 7.59966 15V26.6667H26.5988V15Z" fill="#464646"/>
</svg>
