<svg width="256" height="76" viewBox="0 0 256 76" fill="none" xmlns="http://www.w3.org/2000/svg">
<path d="M256 0H0V76H256V0Z" fill="#E0D7F8"/>
<path d="M105.946 35.9461H105.203L99.364 24.0711L99.1956 33.0698C99.1956 33.8086 99.3008 34.3298 99.5184 34.6267C99.7324 34.917 100.199 35.0753 100.922 35.1017V35.801C100.585 35.801 100.164 35.7977 99.6587 35.7878C99.1535 35.7812 98.6271 35.7746 98.0868 35.7746C97.5429 35.7746 97.0201 35.7812 96.5149 35.7878C96.0096 35.7977 95.5886 35.8076 95.2517 35.8142V35.0753C95.7464 35.0687 96.157 35.0423 96.4868 34.9961C96.8131 34.9434 97.0763 34.8444 97.2728 34.6927C97.4868 34.5607 97.6412 34.3628 97.7359 34.0989C97.8271 33.8284 97.8903 33.4623 97.9184 33.0038L98.1429 23.1871C98.1429 22.5472 97.9921 22.1019 97.6938 21.8545C97.4026 21.6005 96.8938 21.4718 96.164 21.4718V20.7066C96.3886 20.733 96.6693 20.7527 97.0061 20.7593C97.3429 20.7593 97.6798 20.7593 98.0166 20.7593C98.3605 20.7593 98.6833 20.7593 98.985 20.7593C99.2833 20.7527 99.5114 20.733 99.6728 20.7066L105.904 33.3732L111.967 20.7198C112.136 20.7461 112.392 20.7593 112.739 20.7593C113.094 20.7593 113.462 20.7593 113.848 20.7593C114.231 20.7593 114.592 20.756 114.929 20.7461C115.273 20.7297 115.525 20.7066 115.687 20.6802V21.4718C114.88 21.4718 114.346 21.6038 114.087 21.8677C113.824 22.1316 113.694 22.567 113.694 23.1739L113.932 33.0038C113.939 33.4359 113.978 33.7889 114.045 34.0593C114.108 34.3232 114.234 34.531 114.424 34.6795C114.592 34.8378 114.834 34.9434 115.153 34.9961C115.48 35.0489 115.911 35.0753 116.445 35.0753V35.801C116.108 35.801 115.631 35.801 115.013 35.801C114.396 35.801 113.739 35.801 113.048 35.801C112.364 35.801 111.708 35.801 111.083 35.801C110.466 35.801 109.996 35.801 109.68 35.801V35.0753C110.164 35.0753 110.557 35.0489 110.859 34.9961C111.167 34.9434 111.406 34.8444 111.575 34.6927C111.732 34.5442 111.845 34.3364 111.911 34.0725C111.975 33.8086 112.01 33.4524 112.01 33.0038L111.883 23.6885L105.946 35.9461Z" fill="#464646"/>
<path d="M135.722 28.1876C135.722 29.1838 135.529 30.1601 135.147 31.1167C134.761 32.0667 134.224 32.9112 133.533 33.6501C132.831 34.3989 131.992 35.0025 131.02 35.4577C130.045 35.9162 128.961 36.1438 127.764 36.1438C126.669 36.1438 125.634 35.9327 124.662 35.5105C123.698 35.0883 122.859 34.5209 122.15 33.8084C121.42 33.1058 120.848 32.2844 120.438 31.341C120.024 30.391 119.82 29.3949 119.82 28.3459C119.82 27.3629 120.01 26.3931 120.396 25.4431C120.778 24.4931 121.322 23.6454 122.024 22.8966C122.715 22.1412 123.557 21.5343 124.55 21.0758C125.54 20.6107 126.631 20.3765 127.82 20.3765C128.905 20.3765 129.926 20.5942 130.88 21.023C131.841 21.4551 132.68 22.0225 133.392 22.7251C134.122 23.4574 134.69 24.2919 135.105 25.232C135.515 26.1754 135.722 27.1584 135.722 28.1876ZM133.49 28.7945C133.49 28.0029 133.368 27.1716 133.126 26.3008C132.88 25.4233 132.512 24.6086 132.017 23.8598C131.529 23.1209 130.912 22.5107 130.164 22.0258C129.413 21.5343 128.543 21.2869 127.554 21.2869C126.74 21.2869 125.989 21.4518 125.308 21.7751C124.634 22.0917 124.059 22.5338 123.582 23.0945C123.076 23.6685 122.69 24.348 122.431 25.1397C122.168 25.9313 122.038 26.7956 122.038 27.7258C122.038 28.5372 122.157 29.385 122.403 30.2723C122.645 31.1629 123.013 31.9744 123.512 32.7133C124.006 33.4621 124.627 34.0789 125.378 34.5605C126.126 35.0355 127.006 35.273 128.017 35.273C128.866 35.273 129.631 35.1213 130.305 34.8112C130.985 34.4945 131.561 34.0459 132.031 33.4654C132.498 32.8947 132.859 32.2119 133.112 31.4202C133.364 30.6219 133.49 29.7445 133.49 28.7945Z" fill="#464646"/>
<path d="M143.009 31.3412C143.419 31.3412 143.77 31.4798 144.061 31.7503C144.349 32.0141 144.496 32.3407 144.496 32.7266C144.496 33.1159 144.349 33.449 144.061 33.7294C143.77 34.0032 143.419 34.1385 143.009 34.1385C142.588 34.1385 142.23 34.0032 141.942 33.7294C141.651 33.449 141.507 33.1159 141.507 32.7266C141.507 32.3407 141.651 32.0141 141.942 31.7503C142.23 31.4798 142.588 31.3412 143.009 31.3412ZM143.009 22.5273C143.419 22.5273 143.77 22.6692 144.061 22.9496C144.349 23.2234 144.496 23.5532 144.496 23.9391C144.496 24.3284 144.349 24.6582 144.061 24.9287C143.77 25.2025 143.419 25.3378 143.009 25.3378C142.588 25.3378 142.23 25.2025 141.942 24.9287C141.651 24.6582 141.507 24.3284 141.507 23.9391C141.507 23.5532 141.651 23.2234 141.942 22.9496C142.23 22.6692 142.588 22.5273 143.009 22.5273Z" fill="#464646"/>
<path d="M162.94 27.3829V23.2531C162.94 22.8407 162.912 22.5208 162.856 22.2899C162.807 22.0524 162.708 21.8743 162.561 21.7489C162.41 21.6269 162.2 21.551 161.929 21.5246C161.666 21.4982 161.319 21.4817 160.891 21.4718V20.7065C161.171 20.7164 161.596 20.7263 162.168 20.7329C162.736 20.7428 163.336 20.7461 163.964 20.7461C164.571 20.7461 165.15 20.7428 165.705 20.7329C166.266 20.7263 166.677 20.7164 166.94 20.7065V21.4718C166.491 21.4817 166.129 21.5048 165.859 21.5378C165.596 21.5741 165.389 21.6499 165.242 21.7621C165.091 21.8874 164.993 22.0656 164.947 22.3031C164.898 22.534 164.877 22.8506 164.877 23.2531V33.0434C164.877 33.492 164.898 33.8482 164.947 34.1121C165.003 34.376 165.101 34.5805 165.242 34.719C165.4 34.8609 165.61 34.9565 165.873 35.0093C166.133 35.0555 166.491 35.0753 166.94 35.0753V35.8142C166.677 35.8076 166.266 35.7977 165.705 35.7878C165.15 35.7812 164.568 35.7746 163.95 35.7746C163.333 35.7746 162.736 35.7812 162.168 35.7878C161.596 35.7977 161.171 35.8076 160.891 35.8142V35.0753C161.329 35.0753 161.684 35.0489 161.957 34.9961C162.228 34.9434 162.435 34.8378 162.575 34.6795C162.715 34.531 162.807 34.3298 162.856 34.0725C162.912 33.8086 162.94 33.4656 162.94 33.0434V28.4517H153.593V33.0434C153.593 33.4755 153.61 33.8284 153.649 34.0989C153.694 34.3628 153.789 34.5607 153.929 34.6927C154.059 34.8444 154.256 34.9434 154.519 34.9961C154.789 35.0489 155.154 35.0753 155.614 35.0753V35.8142C155.333 35.8142 154.912 35.8142 154.35 35.8142C153.796 35.8076 153.217 35.801 152.61 35.801C151.993 35.801 151.403 35.801 150.842 35.801C150.28 35.801 149.863 35.8076 149.593 35.8142V35.0753C150.021 35.0753 150.371 35.0489 150.645 34.9961C150.915 34.9434 151.122 34.8444 151.263 34.6927C151.41 34.5442 151.508 34.343 151.557 34.0857C151.614 33.8218 151.642 33.4755 151.642 33.0434V23.319C151.642 22.8968 151.614 22.567 151.557 22.3295C151.508 22.092 151.41 21.9138 151.263 21.7885C151.122 21.6565 150.915 21.5741 150.645 21.5378C150.371 21.5048 150.021 21.4817 149.593 21.4718V20.7065C149.845 20.7329 150.245 20.7527 150.8 20.7593C151.361 20.7593 151.95 20.7593 152.568 20.7593C153.193 20.7593 153.789 20.7593 154.35 20.7593C154.912 20.7527 155.333 20.7329 155.614 20.7065V21.4718C155.182 21.4817 154.831 21.5081 154.561 21.551C154.298 21.5873 154.091 21.6664 153.943 21.7885C153.803 21.9204 153.708 22.1118 153.663 22.3558C153.614 22.5933 153.593 22.9166 153.593 23.319V27.3829H162.94Z" fill="#464646"/>
<path d="M173.799 27.4621H176.858C177.371 27.4621 177.728 27.3499 177.925 27.119C178.121 26.8815 178.22 26.3801 178.22 25.6148H179.104V30.576H178.22C178.22 30.1372 178.199 29.7843 178.163 29.5204C178.135 29.2499 178.069 29.0388 177.967 28.8871C177.862 28.7485 177.718 28.6562 177.532 28.61C177.353 28.5572 177.118 28.5308 176.83 28.5308H173.799V33.1093C173.799 33.515 173.827 33.835 173.883 34.0725C173.939 34.31 174.055 34.5013 174.234 34.6398C174.42 34.7718 174.672 34.8576 174.992 34.8905C175.307 34.9169 175.728 34.9301 176.255 34.9301H177.841C178.381 34.9301 178.83 34.8971 179.188 34.8246C179.553 34.7553 179.855 34.6201 180.1 34.4155C180.36 34.2308 180.581 33.9669 180.76 33.6239C180.935 33.2808 181.111 32.8421 181.279 32.3044H182.22C182.03 32.8586 181.841 33.449 181.644 34.0725C181.455 34.6893 181.297 35.2666 181.167 35.801C180.258 35.7845 179.314 35.7746 178.332 35.7746C177.349 35.768 176.356 35.7614 175.356 35.7614C174.374 35.7614 173.406 35.768 172.451 35.7746C171.497 35.7746 170.592 35.7845 169.742 35.801V35.0753C170.181 35.0753 170.542 35.0489 170.823 34.9961C171.104 34.9433 171.318 34.8444 171.469 34.6926C171.616 34.5607 171.721 34.3694 171.778 34.1121C171.834 33.8482 171.862 33.515 171.862 33.1093V23.2662C171.862 22.8704 171.834 22.5603 171.778 22.3294C171.721 22.0919 171.616 21.9138 171.469 21.7885C171.318 21.6664 171.104 21.5872 170.823 21.551C170.542 21.5081 170.181 21.485 169.742 21.485V20.7461C170.563 20.7725 171.441 20.7923 172.367 20.7989C173.293 20.7989 174.227 20.7989 175.174 20.7989C176.107 20.7989 177.03 20.7989 177.939 20.7989C178.855 20.7923 179.711 20.7725 180.507 20.7461V24.1503H179.651C179.585 23.5961 179.504 23.1541 179.413 22.8176C179.318 22.4746 179.163 22.2107 178.949 22.026C178.753 21.8511 178.476 21.7357 178.121 21.6829C177.763 21.6235 177.3 21.5905 176.732 21.5905H173.799V27.4621Z" fill="#464646"/>
<path d="M193.209 33.2545C193.209 33.6437 193.23 33.9538 193.279 34.1913C193.325 34.4222 193.427 34.6003 193.588 34.7322C193.729 34.8642 193.932 34.9565 194.206 35.0093C194.476 35.0555 194.827 35.0753 195.258 35.0753V35.8142C194.872 35.8076 194.409 35.7977 193.869 35.7878C193.325 35.7812 192.767 35.7746 192.199 35.7746C191.627 35.7746 191.079 35.7812 190.557 35.7878C190.03 35.7977 189.592 35.8076 189.237 35.8142V35.0753C189.658 35.0753 189.999 35.0555 190.262 35.0093C190.532 34.9565 190.739 34.8642 190.879 34.7322C191.02 34.6201 191.118 34.442 191.174 34.2045C191.23 33.9604 191.258 33.6437 191.258 33.2545V28.5572L186.908 22.7121C186.662 22.4416 186.458 22.2206 186.29 22.0524C186.122 21.8874 185.946 21.7621 185.771 21.6829C185.602 21.6038 185.413 21.551 185.209 21.5246C185.002 21.4982 184.76 21.485 184.479 21.485V20.7197C184.788 20.7461 185.181 20.7593 185.658 20.7593C186.143 20.7593 186.658 20.7593 187.202 20.7593C187.736 20.7593 188.255 20.7593 188.76 20.7593C189.265 20.7527 189.701 20.7395 190.065 20.7197V21.4718C189.409 21.4718 189.006 21.551 188.858 21.7093C188.708 21.8611 188.795 22.1546 189.125 22.5933L192.676 27.2906L196.367 22.5274C196.665 22.1315 196.746 21.8611 196.606 21.7093C196.472 21.551 196.002 21.4718 195.188 21.4718V20.7065C195.476 20.7329 195.806 20.7527 196.171 20.7593C196.543 20.7593 196.922 20.7593 197.308 20.7593C197.672 20.7593 198.037 20.7593 198.402 20.7593C198.767 20.7527 199.094 20.7329 199.385 20.7065V21.4718C199.122 21.4817 198.922 21.4982 198.781 21.5246C198.641 21.5444 198.504 21.5972 198.374 21.6829C198.241 21.7819 198.108 21.9171 197.967 22.092C197.827 22.2602 197.644 22.4944 197.42 22.7913L193.209 28.2274V33.2545Z" fill="#464646"/>
<path d="M217.12 21.4718C216.716 21.4718 216.397 21.4916 216.165 21.5246C215.93 21.551 215.758 21.6269 215.646 21.7489C215.512 21.8809 215.435 22.0722 215.407 22.3163C215.379 22.5538 215.365 22.8803 215.365 23.2927V30.9586C215.365 31.7074 215.239 32.3968 214.986 33.0302C214.741 33.6569 214.372 34.2045 213.877 34.6795C213.39 35.1281 212.786 35.4843 212.067 35.7482C211.344 36.0121 210.516 36.1441 209.583 36.1441C207.786 36.1441 206.362 35.7054 205.316 34.8246C204.267 33.9472 203.73 32.5783 203.702 30.7211V23.3586C203.702 22.9364 203.674 22.6033 203.618 22.3559C203.562 22.1118 203.463 21.9271 203.323 21.8017C203.162 21.6698 202.951 21.5873 202.691 21.551C202.428 21.5081 202.081 21.4817 201.653 21.4718V20.7066C201.912 20.733 202.319 20.7527 202.874 20.7593C203.425 20.7593 204.014 20.7593 204.642 20.7593C205.26 20.7593 205.849 20.7593 206.411 20.7593C206.979 20.7527 207.411 20.733 207.702 20.7066V21.4718C207.26 21.4817 206.905 21.5081 206.635 21.551C206.372 21.5873 206.165 21.6698 206.018 21.8017C205.867 21.9271 205.769 22.1118 205.723 22.3559C205.674 22.6033 205.653 22.9364 205.653 23.3586V30.1538C205.653 31.8889 206.011 33.1423 206.734 33.9142C207.463 34.6894 208.607 35.0753 210.172 35.0753C211.312 35.0753 212.256 34.7026 213.007 33.9538C213.755 33.2083 214.13 32.2088 214.13 30.9586V23.3586C214.13 22.9298 214.109 22.5934 214.074 22.3559C214.035 22.1118 213.955 21.9205 213.835 21.7885C213.702 21.6665 213.512 21.5906 213.26 21.5642C213.014 21.5312 212.677 21.5048 212.249 21.485V20.7066C212.474 20.733 212.814 20.7527 213.274 20.7593C213.741 20.7593 214.232 20.7593 214.748 20.7593C215.242 20.7593 215.709 20.756 216.151 20.7461C216.6 20.7297 216.923 20.7066 217.12 20.6802V21.4718Z" fill="#464646"/>
<path d="M230.096 35.9461H229.352L223.514 24.0711L223.345 33.0698C223.345 33.8086 223.45 34.3298 223.668 34.6267C223.882 34.917 224.349 35.0753 225.072 35.1017V35.801C224.735 35.801 224.314 35.7977 223.808 35.7878C223.303 35.7812 222.777 35.7746 222.236 35.7746C221.693 35.7746 221.17 35.7812 220.665 35.7878C220.159 35.7977 219.738 35.8076 219.401 35.8142V35.0753C219.896 35.0687 220.307 35.0423 220.636 34.9961C220.963 34.9434 221.226 34.8444 221.422 34.6927C221.636 34.5607 221.791 34.3628 221.886 34.0989C221.977 33.8284 222.04 33.4623 222.068 33.0038L222.293 23.1871C222.293 22.5472 222.142 22.1019 221.843 21.8545C221.552 21.6005 221.043 21.4718 220.314 21.4718V20.7066C220.538 20.733 220.819 20.7527 221.156 20.7593C221.493 20.7593 221.829 20.7593 222.166 20.7593C222.51 20.7593 222.833 20.7593 223.135 20.7593C223.433 20.7527 223.661 20.733 223.822 20.7066L230.054 33.3732L236.117 20.7198C236.286 20.7461 236.542 20.7593 236.889 20.7593C237.243 20.7593 237.612 20.7593 237.998 20.7593C238.38 20.7593 238.742 20.756 239.079 20.7461C239.422 20.7297 239.675 20.7066 239.836 20.6802V21.4718C239.029 21.4718 238.496 21.6038 238.236 21.8677C237.973 22.1316 237.843 22.567 237.843 23.1739L238.082 33.0038C238.089 33.4359 238.128 33.7889 238.194 34.0593C238.258 34.3232 238.384 34.531 238.573 34.6795C238.742 34.8378 238.984 34.9434 239.303 34.9961C239.629 35.0489 240.061 35.0753 240.594 35.0753V35.801C240.258 35.801 239.78 35.801 239.163 35.801C238.545 35.801 237.889 35.801 237.198 35.801C236.514 35.801 235.858 35.801 235.233 35.801C234.615 35.801 234.145 35.801 233.829 35.801V35.0753C234.314 35.0753 234.707 35.0489 235.008 34.9961C235.317 34.9434 235.556 34.8444 235.724 34.6927C235.882 34.5442 235.994 34.3364 236.061 34.0725C236.124 33.8086 236.159 33.4524 236.159 33.0038L236.033 23.6885L230.096 35.9461Z" fill="#464646"/>
<path d="M31.4457 56.9506H21.558C20.6843 56.9506 19.9685 56.2776 19.9685 55.4563V14.6624C19.9685 13.8443 20.6843 13.1714 21.558 13.1714H31.4457C32.3194 13.1714 33.0352 13.8443 33.0352 14.6624V55.4563C33.0352 56.2776 32.3194 56.9506 31.4457 56.9506Z" fill="#C75DE0"/>
<path d="M77.6387 59.9356V62.6834C77.6387 63.1518 77.2317 63.5047 76.765 63.5047H20.8422C20.3439 63.5047 19.9685 63.1254 19.9685 62.6834V59.9356C19.9685 59.4672 20.372 59.1143 20.8422 59.1143H76.765C77.2632 59.1143 77.6387 59.4936 77.6387 59.9356Z" fill="#464646"/>
<path d="M48.1334 56.9506H38.2457C37.372 56.9506 36.6562 56.2776 36.6562 55.4563V14.6624C36.6562 13.8443 37.372 13.1714 38.2457 13.1714H48.1334C49.0071 13.1714 49.7229 13.8443 49.7229 14.6624V55.4563C49.6913 56.2776 49.0071 56.9506 48.1334 56.9506Z" fill="#464646"/>
<path d="M76.5157 54.2554L67.0315 56.8614C66.1894 57.0956 65.3192 56.6568 65.0666 55.8652L52.7789 16.7403C52.5297 15.9487 52.9964 15.1306 53.8385 14.8964L63.3227 12.2641C64.1648 12.0299 65.0385 12.4686 65.2876 13.257L77.5753 52.4148C77.8245 53.2032 77.3578 54.0212 76.5157 54.2554Z" fill="#464646"/>
</svg>
