<svg width="511" height="142" viewBox="0 0 511 142" fill="none" xmlns="http://www.w3.org/2000/svg">
<path d="M511 0H0V142H511V0Z" fill="white"/>
<path d="M211.479 67.1624H209.994L198.34 44.9749L198.004 61.7881C198.004 63.1687 198.214 64.1425 198.648 64.6971C199.075 65.2395 200.007 65.5353 201.449 65.5846V66.8912C200.777 66.8912 199.937 66.8851 198.928 66.8666C197.919 66.8543 196.869 66.8419 195.79 66.8419C194.705 66.8419 193.661 66.8543 192.653 66.8666C191.644 66.8851 190.804 66.9036 190.131 66.9159V65.5353C191.119 65.523 191.938 65.4737 192.597 65.3874C193.248 65.2888 193.773 65.1039 194.165 64.8204C194.593 64.5739 194.901 64.2041 195.09 63.711C195.272 63.2057 195.398 62.5215 195.454 61.6649L195.902 43.3232C195.902 42.1275 195.601 41.2955 195.006 40.8333C194.425 40.3587 193.409 40.1183 191.952 40.1183V38.6885C192.4 38.7378 192.961 38.7747 193.633 38.7871C194.306 38.7871 194.978 38.7871 195.65 38.7871C196.337 38.7871 196.981 38.7871 197.583 38.7871C198.179 38.7747 198.634 38.7378 198.956 38.6885L211.395 62.3551L223.497 38.7131C223.834 38.7624 224.345 38.7871 225.038 38.7871C225.746 38.7871 226.481 38.7871 227.252 38.7871C228.015 38.7871 228.736 38.7809 229.409 38.7624C230.095 38.7316 230.599 38.6885 230.922 38.6392V40.1183C229.311 40.1183 228.246 40.3649 227.728 40.8579C227.203 41.351 226.943 42.1645 226.943 43.2985L227.42 61.6649C227.434 62.4722 227.511 63.1317 227.644 63.6371C227.77 64.1301 228.022 64.5184 228.4 64.7958C228.736 65.0916 229.22 65.2888 229.857 65.3874C230.508 65.486 231.37 65.5353 232.434 65.5353V66.8912C231.762 66.8912 230.809 66.8912 229.577 66.8912C228.344 66.8912 227.034 66.8912 225.655 66.8912C224.289 66.8912 222.979 66.8912 221.733 66.8912C220.5 66.8912 219.561 66.8912 218.931 66.8912V65.5353C219.898 65.5353 220.682 65.486 221.284 65.3874C221.901 65.2888 222.377 65.1039 222.713 64.8204C223.028 64.5431 223.252 64.1548 223.385 63.6617C223.512 63.1687 223.582 62.503 223.582 61.6649L223.329 44.26L211.479 67.1624Z" fill="#464646"/>
<path d="M270.914 52.6667C270.914 54.528 270.529 56.3523 269.766 58.1396C268.995 59.9146 267.923 61.4924 266.544 62.873C265.143 64.272 263.469 65.3999 261.529 66.2504C259.582 67.1071 257.418 67.5323 255.029 67.5323C252.844 67.5323 250.778 67.1379 248.838 66.349C246.912 65.5601 245.238 64.5 243.823 63.1688C242.366 61.856 241.225 60.3214 240.405 58.5587C239.579 56.7837 239.173 54.9224 239.173 52.9625C239.173 51.1259 239.551 49.3139 240.321 47.5389C241.085 45.7639 242.17 44.18 243.571 42.7809C244.951 41.3696 246.632 40.2355 248.614 39.3789C250.589 38.5099 252.767 38.0723 255.141 38.0723C257.306 38.0723 259.344 38.479 261.249 39.2803C263.168 40.0876 264.842 41.1477 266.264 42.4605C267.72 43.8287 268.855 45.388 269.681 47.1445C270.501 48.9072 270.914 50.7438 270.914 52.6667ZM266.46 53.8007C266.46 52.3216 266.215 50.7684 265.731 49.1414C265.241 47.502 264.506 45.9796 263.518 44.5806C262.545 43.2 261.312 42.0599 259.82 41.1539C258.321 40.2355 256.584 39.7733 254.609 39.7733C252.984 39.7733 251.485 40.0815 250.127 40.6855C248.782 41.2771 247.633 42.103 246.681 43.1507C245.672 44.2231 244.902 45.4928 244.384 46.9719C243.858 48.4511 243.599 50.0658 243.599 51.8039C243.599 53.32 243.837 54.9039 244.328 56.5618C244.811 58.2259 245.546 59.7421 246.541 61.1226C247.528 62.5217 248.768 63.6742 250.267 64.574C251.759 65.4615 253.517 65.9053 255.534 65.9053C257.229 65.9053 258.755 65.6217 260.1 65.0424C261.459 64.4507 262.608 63.6125 263.546 62.5278C264.478 61.4616 265.199 60.1858 265.703 58.7066C266.208 57.2151 266.46 55.5757 266.46 53.8007Z" fill="#464646"/>
<path d="M285.459 58.5589C286.278 58.5589 286.979 58.8177 287.56 59.3231C288.134 59.8162 288.428 60.4263 288.428 61.1474C288.428 61.8747 288.134 62.4972 287.56 63.021C286.979 63.5326 286.278 63.7853 285.459 63.7853C284.618 63.7853 283.904 63.5326 283.33 63.021C282.748 62.4972 282.461 61.8747 282.461 61.1474C282.461 60.4263 282.748 59.8162 283.33 59.3231C283.904 58.8177 284.618 58.5589 285.459 58.5589ZM285.459 42.0908C286.278 42.0908 286.979 42.3558 287.56 42.8797C288.134 43.3913 288.428 44.0076 288.428 44.7287C288.428 45.4559 288.134 46.0722 287.56 46.5776C286.979 47.0892 286.278 47.3419 285.459 47.3419C284.618 47.3419 283.904 47.0892 283.33 46.5776C282.748 46.0722 282.461 45.4559 282.461 44.7287C282.461 44.0076 282.748 43.3913 283.33 42.8797C283.904 42.3558 284.618 42.0908 285.459 42.0908Z" fill="#464646"/>
<path d="M325.243 51.1628V43.4465C325.243 42.6761 325.187 42.0782 325.075 41.6468C324.977 41.2031 324.781 40.8702 324.487 40.636C324.186 40.408 323.765 40.2663 323.226 40.2169C322.701 40.1676 322.007 40.1368 321.153 40.1183V38.6885C321.713 38.707 322.561 38.7255 323.702 38.7378C324.837 38.7563 326.035 38.7624 327.288 38.7624C328.5 38.7624 329.656 38.7563 330.762 38.7378C331.883 38.7255 332.702 38.707 333.228 38.6885V40.1183C332.331 40.1368 331.61 40.18 331.07 40.2416C330.545 40.3094 330.132 40.4511 329.838 40.6607C329.536 40.8949 329.34 41.2277 329.249 41.6715C329.151 42.1029 329.109 42.6946 329.109 43.4465V61.7388C329.109 62.577 329.151 63.2426 329.249 63.7357C329.361 64.2288 329.557 64.6109 329.838 64.8697C330.153 65.1347 330.573 65.3135 331.098 65.4121C331.617 65.4984 332.331 65.5354 333.228 65.5354V66.9159C332.702 66.9036 331.883 66.8851 330.762 66.8666C329.656 66.8543 328.493 66.842 327.26 66.842C326.028 66.842 324.837 66.8543 323.702 66.8666C322.561 66.8851 321.713 66.9036 321.153 66.9159V65.5354C322.028 65.5354 322.736 65.4861 323.282 65.3874C323.821 65.2888 324.235 65.0916 324.515 64.7958C324.795 64.5184 324.977 64.1425 325.075 63.6617C325.187 63.1687 325.243 62.5277 325.243 61.7388V53.1597H306.585V61.7388C306.585 62.5462 306.62 63.2057 306.697 63.7111C306.788 64.2041 306.977 64.5739 307.257 64.8204C307.516 65.1039 307.909 65.2888 308.434 65.3874C308.973 65.4861 309.702 65.5354 310.619 65.5354V66.9159C310.059 66.9159 309.218 66.9159 308.098 66.9159C306.991 66.9036 305.835 66.8913 304.624 66.8913C303.391 66.8913 302.215 66.8913 301.094 66.8913C299.973 66.8913 299.14 66.9036 298.601 66.9159V65.5354C299.455 65.5354 300.155 65.4861 300.702 65.3874C301.241 65.2888 301.654 65.1039 301.934 64.8204C302.229 64.5431 302.425 64.1671 302.523 63.6864C302.635 63.1933 302.691 62.5462 302.691 61.7388V43.5697C302.691 42.7808 302.635 42.1645 302.523 41.7208C302.425 41.277 302.229 40.9442 301.934 40.71C301.654 40.4635 301.241 40.3094 300.702 40.2416C300.155 40.18 299.455 40.1368 298.601 40.1183V38.6885C299.105 38.7378 299.903 38.7748 301.01 38.7871C302.13 38.7871 303.307 38.7871 304.54 38.7871C305.786 38.7871 306.977 38.7871 308.098 38.7871C309.218 38.7748 310.059 38.7378 310.619 38.6885V40.1183C309.758 40.1368 309.057 40.1861 308.518 40.2663C307.993 40.3341 307.579 40.482 307.285 40.71C307.005 40.9565 306.816 41.314 306.725 41.7701C306.627 42.2138 306.585 42.8178 306.585 43.5697V51.1628H325.243Z" fill="#464646"/>
<path d="M346.918 51.311H353.026C354.048 51.311 354.763 51.1014 355.155 50.67C355.547 50.2262 355.743 49.2894 355.743 47.8596H357.508V57.129H355.743C355.743 56.3093 355.701 55.6498 355.631 55.1568C355.575 54.6514 355.442 54.257 355.239 53.9735C355.029 53.7146 354.742 53.542 354.37 53.4558C354.013 53.3571 353.544 53.3078 352.97 53.3078H346.918V61.8623C346.918 62.6204 346.974 63.2183 347.086 63.662C347.198 64.1058 347.43 64.4632 347.787 64.7221C348.158 64.9686 348.662 65.1288 349.3 65.1905C349.93 65.2398 350.77 65.2644 351.821 65.2644H354.987C356.065 65.2644 356.962 65.2028 357.676 65.0672C358.405 64.9378 359.007 64.6851 359.497 64.303C360.015 63.9578 360.457 63.4648 360.814 62.8238C361.164 62.1828 361.514 61.3631 361.85 60.3585H363.727C363.349 61.3939 362.971 62.4972 362.579 63.662C362.201 64.8145 361.885 65.8931 361.626 66.8915C359.812 66.8607 357.928 66.8422 355.967 66.8422C354.006 66.8299 352.024 66.8176 350.028 66.8176C348.067 66.8176 346.134 66.8299 344.229 66.8422C342.324 66.8422 340.517 66.8607 338.822 66.8915V65.5356C339.697 65.5356 340.419 65.4863 340.979 65.3877C341.539 65.2891 341.967 65.1042 342.268 64.8207C342.562 64.5742 342.772 64.2167 342.884 63.736C342.996 63.2429 343.052 62.6204 343.052 61.8623V43.4714C343.052 42.7318 342.996 42.1525 342.884 41.721C342.772 41.2773 342.562 40.9445 342.268 40.7103C341.967 40.4822 341.539 40.3343 340.979 40.2665C340.419 40.1864 339.697 40.1433 338.822 40.1433V38.7627C340.461 38.812 342.212 38.849 344.061 38.8613C345.91 38.8613 347.773 38.8613 349.664 38.8613C351.527 38.8613 353.369 38.8613 355.183 38.8613C357.011 38.849 358.72 38.812 360.31 38.7627V45.1231H358.601C358.468 44.0877 358.306 43.2618 358.124 42.6332C357.935 41.9922 357.627 41.4992 357.2 41.154C356.808 40.8274 356.254 40.6117 355.547 40.513C354.833 40.4021 353.908 40.3405 352.773 40.3405H346.918V51.311Z" fill="#464646"/>
<path d="M385.664 62.1333C385.664 62.8605 385.706 63.4399 385.804 63.8836C385.895 64.315 386.098 64.6479 386.421 64.8944C386.701 65.1409 387.107 65.3135 387.653 65.4121C388.193 65.4984 388.893 65.5354 389.754 65.5354V66.9159C388.984 66.9036 388.059 66.8851 386.981 66.8666C385.895 66.8543 384.782 66.842 383.647 66.842C382.505 66.842 381.413 66.8543 380.369 66.8666C379.319 66.8851 378.443 66.9036 377.736 66.9159V65.5354C378.576 65.5354 379.256 65.4984 379.781 65.4121C380.32 65.3135 380.733 65.1409 381.014 64.8944C381.294 64.6848 381.49 64.352 381.602 63.9083C381.714 63.4522 381.77 62.8605 381.77 62.1333V53.3569L373.085 42.4357C372.595 41.9303 372.189 41.5174 371.853 41.2031C371.516 40.8949 371.166 40.6607 370.816 40.5128C370.48 40.3649 370.102 40.2663 369.695 40.2169C369.282 40.1676 368.799 40.143 368.239 40.143V38.7131C368.855 38.7624 369.639 38.7871 370.592 38.7871C371.558 38.7871 372.588 38.7871 373.674 38.7871C374.738 38.7871 375.775 38.7871 376.783 38.7871C377.792 38.7748 378.66 38.7501 379.389 38.7131V40.1183C378.079 40.1183 377.274 40.2663 376.979 40.5621C376.678 40.8456 376.853 41.3941 377.512 42.2138L384.6 50.9902L391.968 42.0906C392.563 41.351 392.724 40.8456 392.444 40.5621C392.178 40.2663 391.239 40.1183 389.614 40.1183V38.6885C390.189 38.7378 390.847 38.7748 391.575 38.7871C392.318 38.7871 393.074 38.7871 393.845 38.7871C394.573 38.7871 395.301 38.7871 396.03 38.7871C396.758 38.7748 397.41 38.7378 397.991 38.6885V40.1183C397.466 40.1368 397.066 40.1676 396.786 40.2169C396.506 40.2539 396.233 40.3525 395.974 40.5128C395.708 40.6977 395.442 40.9504 395.161 41.277C394.881 41.5913 394.517 42.0289 394.069 42.5836L385.664 52.7406V62.1333Z" fill="#464646"/>
<path d="M433.391 40.1183C432.586 40.1183 431.948 40.1553 431.486 40.2169C431.017 40.2662 430.674 40.408 430.45 40.636C430.183 40.8826 430.029 41.24 429.973 41.6961C429.917 42.1399 429.889 42.75 429.889 43.5204V57.8437C429.889 59.2427 429.637 60.5308 429.133 61.7142C428.643 62.8852 427.907 63.9083 426.92 64.7958C425.946 65.634 424.741 66.2996 423.306 66.7926C421.863 67.2857 420.21 67.5322 418.347 67.5322C414.761 67.5322 411.917 66.7125 409.83 65.0669C407.736 63.4275 406.664 60.8698 406.608 57.3999V43.6437C406.608 42.8548 406.552 42.2323 406.44 41.7701C406.328 41.314 406.132 40.9688 405.852 40.7346C405.53 40.4881 405.11 40.334 404.591 40.2662C404.066 40.1861 403.373 40.1368 402.518 40.1183V38.6885C403.036 38.7378 403.849 38.7747 404.956 38.7871C406.055 38.7871 407.232 38.7871 408.485 38.7871C409.718 38.7871 410.895 38.7871 412.015 38.7871C413.15 38.7747 414.012 38.7378 414.593 38.6885V40.1183C413.71 40.1368 413.003 40.1861 412.464 40.2662C411.938 40.334 411.525 40.4881 411.231 40.7346C410.93 40.9688 410.734 41.314 410.643 41.7701C410.545 42.2323 410.503 42.8548 410.503 43.6437V56.3399C410.503 59.5817 411.217 61.9237 412.66 63.3659C414.117 64.8143 416.4 65.5353 419.524 65.5353C421.8 65.5353 423.684 64.8389 425.183 63.4399C426.674 62.047 427.424 60.1795 427.424 57.8437V43.6437C427.424 42.8425 427.382 42.2138 427.312 41.7701C427.235 41.314 427.074 40.9565 426.836 40.71C426.569 40.482 426.191 40.3402 425.687 40.2909C425.197 40.2293 424.524 40.18 423.67 40.143V38.6885C424.118 38.7378 424.797 38.7747 425.715 38.7871C426.646 38.7871 427.627 38.7871 428.657 38.7871C429.644 38.7871 430.576 38.7809 431.458 38.7624C432.355 38.7316 432.999 38.6885 433.391 38.6392V40.1183Z" fill="#464646"/>
<path d="M459.293 67.1624H457.808L446.154 44.9749L445.818 61.7881C445.818 63.1687 446.028 64.1425 446.462 64.6971C446.89 65.2395 447.821 65.5353 449.264 65.5846V66.8912C448.591 66.8912 447.751 66.8851 446.742 66.8666C445.734 66.8543 444.683 66.8419 443.605 66.8419C442.519 66.8419 441.476 66.8543 440.467 66.8666C439.458 66.8851 438.618 66.9036 437.946 66.9159V65.5353C438.933 65.523 439.753 65.4737 440.411 65.3874C441.062 65.2888 441.588 65.1039 441.98 64.8204C442.407 64.5739 442.715 64.2041 442.904 63.711C443.086 63.2057 443.213 62.5215 443.269 61.6649L443.717 43.3232C443.717 42.1275 443.416 41.2955 442.82 40.8333C442.239 40.3587 441.223 40.1183 439.767 40.1183V38.6885C440.215 38.7378 440.775 38.7747 441.448 38.7871C442.12 38.7871 442.792 38.7871 443.465 38.7871C444.151 38.7871 444.795 38.7871 445.398 38.7871C445.993 38.7747 446.448 38.7378 446.77 38.6885L459.209 62.3551L471.312 38.7131C471.648 38.7624 472.159 38.7871 472.853 38.7871C473.56 38.7871 474.296 38.7871 475.066 38.7871C475.829 38.7871 476.551 38.7809 477.223 38.7624C477.909 38.7316 478.414 38.6885 478.736 38.6392V40.1183C477.125 40.1183 476.06 40.3649 475.542 40.8579C475.017 41.351 474.758 42.1645 474.758 43.2985L475.234 61.6649C475.248 62.4722 475.325 63.1317 475.458 63.6371C475.584 64.1301 475.836 64.5184 476.215 64.7958C476.551 65.0916 477.034 65.2888 477.671 65.3874C478.323 65.486 479.184 65.5353 480.249 65.5353V66.8912C479.576 66.8912 478.624 66.8912 477.391 66.8912C476.159 66.8912 474.849 66.8912 473.469 66.8912C472.103 66.8912 470.794 66.8912 469.547 66.8912C468.314 66.8912 467.376 66.8912 466.745 66.8912V65.5353C467.712 65.5353 468.496 65.486 469.099 65.3874C469.715 65.2888 470.191 65.1039 470.527 64.8204C470.843 64.5431 471.067 64.1548 471.2 63.6617C471.326 63.1687 471.396 62.503 471.396 61.6649L471.144 44.26L459.293 67.1624Z" fill="#464646"/>
<path d="M62.7684 106.408H43.0316C41.2877 106.408 39.8589 105.15 39.8589 103.616V27.3956C39.8589 25.8672 41.2877 24.6099 43.0316 24.6099H62.7684C64.5124 24.6099 65.9412 25.8672 65.9412 27.3956V103.616C65.9412 105.15 64.5124 106.408 62.7684 106.408Z" fill="#C75DE0"/>
<path d="M154.974 111.985V117.119C154.974 117.994 154.162 118.654 153.23 118.654H41.6028C40.6083 118.654 39.8589 117.945 39.8589 117.119V111.985C39.8589 111.11 40.6643 110.451 41.6028 110.451H153.23C154.225 110.451 154.974 111.159 154.974 111.985Z" fill="#464646"/>
<path d="M96.0789 106.408H76.342C74.5981 106.408 73.1693 105.15 73.1693 103.616V27.3956C73.1693 25.8672 74.5981 24.6099 76.342 24.6099H96.0789C97.8228 24.6099 99.2516 25.8672 99.2516 27.3956V103.616C99.1886 105.15 97.8228 106.408 96.0789 106.408Z" fill="#464646"/>
<path d="M152.732 101.372L133.801 106.241C132.12 106.678 130.383 105.859 129.879 104.38L105.351 31.278C104.854 29.7988 105.786 28.2703 107.467 27.8327L126.398 22.9145C128.079 22.4769 129.823 23.2966 130.32 24.7696L154.848 97.9329C155.345 99.4059 154.413 100.934 152.732 101.372Z" fill="#464646"/>
</svg>
