<svg width="30" height="30" viewBox="0 0 30 30" fill="none" xmlns="http://www.w3.org/2000/svg">
<path d="M19 17C19 16.4696 19.2107 15.9609 19.5858 15.5858C19.9609 15.2107 20.4696 15 21 15C21.5304 15 22.0391 15.2107 22.4142 15.5858C22.7893 15.9609 23 16.4696 23 17C23 17.5304 22.7893 18.0391 22.4142 18.4142C22.0391 18.7893 21.5304 19 21 19C20.4696 19 19.9609 18.7893 19.5858 18.4142C19.2107 18.0391 19 17.5304 19 17ZM13 17C13 16.4696 13.2107 15.9609 13.5858 15.5858C13.9609 15.2107 14.4696 15 15 15C15.5304 15 16.0391 15.2107 16.4142 15.5858C16.7893 15.9609 17 16.4696 17 17C17 17.5304 16.7893 18.0391 16.4142 18.4142C16.0391 18.7893 15.5304 19 15 19C14.4696 19 13.9609 18.7893 13.5858 18.4142C13.2107 18.0391 13 17.5304 13 17ZM7 17C7 16.4696 7.21071 15.9609 7.58579 15.5858C7.96086 15.2107 8.46957 15 9 15C9.53043 15 10.0391 15.2107 10.4142 15.5858C10.7893 15.9609 11 16.4696 11 17C11 17.5304 10.7893 18.0391 10.4142 18.4142C10.0391 18.7893 9.53043 19 9 19C8.46957 19 7.96086 18.7893 7.58579 18.4142C7.21071 18.0391 7 17.5304 7 17Z" fill="black"/>
</svg>
