<svg xmlns="http://www.w3.org/2000/svg" xmlns:xlink="http://www.w3.org/1999/xlink" width="620" zoomAndPan="magnify" viewBox="0 0 464.87997 135.000003" height="180" preserveAspectRatio="xMidYMid meet" version="1.0"><defs><g/><clipPath id="a46ec060fe"><path d="M 38 99 L 121.234375 99 L 121.234375 106.558594 L 38 106.558594 Z M 38 99 " clip-rule="nonzero"/></clipPath><clipPath id="afa3bfeb36"><path d="M 85 27.640625 L 121.234375 27.640625 L 121.234375 97 L 85 97 Z M 85 27.640625 " clip-rule="nonzero"/></clipPath></defs><path fill="#c75de0" d="M 54.5625 96.472656 L 40.332031 96.472656 C 39.078125 96.472656 38.042969 95.4375 38.042969 94.175781 L 38.042969 31.421875 C 38.042969 30.164062 39.078125 29.125 40.332031 29.125 L 54.5625 29.125 C 55.820312 29.125 56.851562 30.164062 56.851562 31.421875 L 56.851562 94.175781 C 56.851562 95.4375 55.820312 96.472656 54.5625 96.472656 Z M 54.5625 96.472656 " fill-opacity="1" fill-rule="nonzero"/><g clip-path="url(#a46ec060fe)"><path fill="#464646" d="M 121.039062 101.066406 L 121.039062 105.296875 C 121.039062 106.015625 120.453125 106.558594 119.78125 106.558594 L 39.300781 106.558594 C 38.582031 106.558594 38.042969 105.972656 38.042969 105.296875 L 38.042969 101.066406 C 38.042969 100.34375 38.628906 99.804688 39.300781 99.804688 L 119.78125 99.804688 C 120.5 99.804688 121.039062 100.390625 121.039062 101.066406 Z M 121.039062 101.066406 " fill-opacity="1" fill-rule="nonzero"/></g><path fill="#464646" d="M 78.578125 96.472656 L 64.347656 96.472656 C 63.089844 96.472656 62.058594 95.4375 62.058594 94.175781 L 62.058594 31.421875 C 62.058594 30.164062 63.089844 29.125 64.347656 29.125 L 78.578125 29.125 C 79.832031 29.125 80.867188 30.164062 80.867188 31.421875 L 80.867188 94.175781 C 80.820312 95.4375 79.832031 96.472656 78.578125 96.472656 Z M 78.578125 96.472656 " fill-opacity="1" fill-rule="nonzero"/><g clip-path="url(#afa3bfeb36)"><path fill="#464646" d="M 119.421875 92.332031 L 105.777344 96.335938 C 104.566406 96.699219 103.308594 96.023438 102.949219 94.808594 L 85.265625 34.617188 C 84.90625 33.402344 85.578125 32.144531 86.789062 31.78125 L 100.4375 27.730469 C 101.648438 27.371094 102.90625 28.046875 103.261719 29.261719 L 120.949219 89.496094 C 121.308594 90.710938 120.632812 91.972656 119.421875 92.332031 Z M 119.421875 92.332031 " fill-opacity="1" fill-rule="nonzero"/></g><g fill="#464646" fill-opacity="1"><g transform="translate(160.608153, 88.682912)"><g><path d="M 37.953125 -4.203125 C 37.910156 -3.742188 37.847656 -3.257812 37.765625 -2.75 C 37.691406 -2.238281 37.5625 -1.769531 37.375 -1.34375 C 37.175781 -0.875 36.921875 -0.523438 36.609375 -0.296875 C 36.179688 0.0976562 35.675781 0.3125 35.09375 0.34375 C 34.539062 0.539062 34.007812 0.597656 33.5 0.515625 C 33 0.441406 32.535156 0.304688 32.109375 0.109375 C 31.566406 -0.234375 31.164062 -0.648438 30.90625 -1.140625 C 30.65625 -1.628906 30.46875 -2.144531 30.34375 -2.6875 C 30.226562 -3.238281 30.171875 -3.804688 30.171875 -4.390625 C 30.171875 -4.972656 30.171875 -5.519531 30.171875 -6.03125 L 30.171875 -10.578125 L 30.125 -19.53125 C 30.125 -20.15625 30.125 -20.640625 30.125 -20.984375 C 30.125 -21.335938 30.125 -21.660156 30.125 -21.953125 C 30.125 -22.253906 30.113281 -22.585938 30.09375 -22.953125 C 30.070312 -23.328125 30.0625 -23.863281 30.0625 -24.5625 C 30.0625 -24.675781 30.070312 -24.878906 30.09375 -25.171875 C 30.113281 -25.460938 30.082031 -26.253906 30 -27.546875 C 28.476562 -25.015625 27.21875 -22.976562 26.21875 -21.4375 C 25.226562 -19.894531 24.390625 -18.703125 23.703125 -17.859375 C 23.023438 -17.023438 22.429688 -16.460938 21.921875 -16.171875 C 21.421875 -15.878906 20.898438 -15.710938 20.359375 -15.671875 C 20.046875 -15.628906 19.734375 -15.6875 19.421875 -15.84375 C 19.109375 -16 18.804688 -16.191406 18.515625 -16.421875 C 18.222656 -16.660156 17.945312 -16.90625 17.6875 -17.15625 C 17.4375 -17.414062 17.234375 -17.660156 17.078125 -17.890625 C 16.140625 -19.066406 15.085938 -20.472656 13.921875 -22.109375 C 12.753906 -23.742188 11.546875 -25.734375 10.296875 -28.078125 C 10.296875 -28.035156 10.285156 -27.390625 10.265625 -26.140625 C 10.242188 -24.890625 10.234375 -23.335938 10.234375 -21.484375 C 10.234375 -19.640625 10.222656 -17.65625 10.203125 -15.53125 C 10.179688 -13.40625 10.160156 -11.425781 10.140625 -9.59375 C 10.128906 -7.757812 10.101562 -6.226562 10.0625 -5 C 10.019531 -3.769531 9.976562 -3.15625 9.9375 -3.15625 C 9.9375 -2.488281 9.78125 -1.875 9.46875 -1.3125 C 9.15625 -0.75 8.734375 -0.296875 8.203125 0.046875 C 7.679688 0.398438 7.070312 0.597656 6.375 0.640625 C 5.675781 0.679688 4.914062 0.488281 4.09375 0.0625 C 3.582031 -0.25 3.203125 -0.695312 2.953125 -1.28125 C 2.703125 -1.863281 2.535156 -2.410156 2.453125 -2.921875 C 2.410156 -3.472656 2.378906 -4 2.359375 -4.5 C 2.347656 -5.007812 2.34375 -5.535156 2.34375 -6.078125 L 2.390625 -10.640625 L 2.453125 -19.65625 L 2.453125 -27.484375 C 2.453125 -30.878906 2.570312 -34.210938 2.8125 -37.484375 C 2.8125 -37.910156 2.859375 -38.3125 2.953125 -38.6875 C 3.046875 -39.0625 3.171875 -39.421875 3.328125 -39.765625 C 3.640625 -40.390625 4.050781 -40.859375 4.5625 -41.171875 C 5.144531 -41.523438 5.769531 -41.703125 6.4375 -41.703125 C 6.707031 -41.703125 6.96875 -41.691406 7.21875 -41.671875 C 7.476562 -41.648438 7.722656 -41.617188 7.953125 -41.578125 C 8.734375 -41.421875 9.40625 -40.960938 9.96875 -40.203125 C 10.53125 -39.441406 11.066406 -38.789062 11.578125 -38.25 C 11.890625 -37.894531 12.21875 -37.460938 12.5625 -36.953125 C 12.914062 -36.453125 13.269531 -35.925781 13.625 -35.375 C 13.976562 -34.832031 14.3125 -34.304688 14.625 -33.796875 C 14.9375 -33.296875 15.207031 -32.847656 15.4375 -32.453125 C 16.445312 -30.816406 17.351562 -29.316406 18.15625 -27.953125 C 18.957031 -26.585938 19.707031 -25.421875 20.40625 -24.453125 C 20.53125 -24.566406 20.664062 -24.726562 20.8125 -24.9375 C 20.96875 -25.15625 21.132812 -25.390625 21.3125 -25.640625 C 21.488281 -25.898438 21.644531 -26.144531 21.78125 -26.375 C 21.914062 -26.613281 22.023438 -26.8125 22.109375 -26.96875 C 22.492188 -27.582031 22.878906 -28.191406 23.265625 -28.796875 C 23.660156 -29.398438 24.082031 -30.039062 24.53125 -30.71875 C 24.976562 -31.40625 25.445312 -32.160156 25.9375 -32.984375 C 26.425781 -33.804688 27 -34.742188 27.65625 -35.796875 C 27.9375 -36.265625 28.289062 -36.828125 28.71875 -37.484375 C 29.144531 -38.148438 29.628906 -38.796875 30.171875 -39.421875 C 30.722656 -40.046875 31.300781 -40.582031 31.90625 -41.03125 C 32.507812 -41.476562 33.125 -41.703125 33.75 -41.703125 C 34.0625 -41.703125 34.332031 -41.691406 34.5625 -41.671875 C 34.800781 -41.648438 35.035156 -41.617188 35.265625 -41.578125 C 35.734375 -41.546875 36.179688 -41.332031 36.609375 -40.9375 C 36.921875 -40.625 37.15625 -40.289062 37.3125 -39.9375 C 37.46875 -39.4375 37.566406 -39.007812 37.609375 -38.65625 C 37.640625 -38.382812 37.664062 -38.128906 37.6875 -37.890625 C 37.707031 -37.660156 37.71875 -37.429688 37.71875 -37.203125 C 37.71875 -35.015625 37.738281 -32.847656 37.78125 -30.703125 C 37.820312 -28.554688 37.84375 -26.394531 37.84375 -24.21875 C 37.84375 -21.5625 37.847656 -18.828125 37.859375 -16.015625 C 37.878906 -13.210938 37.890625 -10.488281 37.890625 -7.84375 C 37.890625 -7.289062 37.910156 -6.703125 37.953125 -6.078125 C 37.992188 -5.453125 37.992188 -4.828125 37.953125 -4.203125 Z M 37.953125 -4.203125 "/></g></g></g><g fill="#464646" fill-opacity="1"><g transform="translate(200.955548, 88.682912)"><g><path d="M 12.6875 -40 C 15.300781 -40.976562 17.671875 -41.40625 19.796875 -41.28125 C 21.921875 -41.164062 23.820312 -40.628906 25.5 -39.671875 C 27.175781 -38.722656 28.609375 -37.445312 29.796875 -35.84375 C 30.984375 -34.25 31.945312 -32.457031 32.6875 -30.46875 C 33.269531 -28.988281 33.71875 -27.425781 34.03125 -25.78125 C 34.34375 -24.144531 34.53125 -22.519531 34.59375 -20.90625 C 34.65625 -19.289062 34.597656 -17.703125 34.421875 -16.140625 C 34.242188 -14.578125 33.957031 -13.132812 33.5625 -11.8125 C 33.332031 -10.914062 33.0625 -10.097656 32.75 -9.359375 C 32.4375 -8.617188 32.066406 -7.878906 31.640625 -7.140625 C 30.660156 -5.460938 29.398438 -4.097656 27.859375 -3.046875 C 26.328125 -1.992188 24.644531 -1.25 22.8125 -0.8125 C 21.5625 -0.5 20.269531 -0.351562 18.9375 -0.375 C 17.613281 -0.394531 16.304688 -0.570312 15.015625 -0.90625 C 13.734375 -1.238281 12.5 -1.722656 11.3125 -2.359375 C 10.125 -3.003906 9.046875 -3.816406 8.078125 -4.796875 C 6.867188 -5.960938 5.875 -7.316406 5.09375 -8.859375 C 4.3125 -10.398438 3.703125 -12.019531 3.265625 -13.71875 C 2.835938 -15.414062 2.566406 -17.117188 2.453125 -18.828125 C 2.335938 -20.546875 2.335938 -22.1875 2.453125 -23.75 C 2.566406 -25.1875 2.847656 -26.722656 3.296875 -28.359375 C 3.753906 -30.003906 4.410156 -31.585938 5.265625 -33.109375 C 6.117188 -34.628906 7.160156 -36 8.390625 -37.21875 C 9.617188 -38.445312 11.050781 -39.375 12.6875 -40 Z M 26.375 -14.96875 C 26.84375 -16.800781 27.035156 -18.867188 26.953125 -21.171875 C 26.878906 -23.472656 26.507812 -25.632812 25.84375 -27.65625 C 25.414062 -28.90625 24.878906 -30.007812 24.234375 -30.96875 C 23.597656 -31.925781 22.835938 -32.65625 21.953125 -33.15625 C 21.078125 -33.664062 20.054688 -33.921875 18.890625 -33.921875 C 17.722656 -33.921875 16.414062 -33.570312 14.96875 -32.875 C 14.113281 -32.4375 13.382812 -31.847656 12.78125 -31.109375 C 12.175781 -30.367188 11.6875 -29.53125 11.3125 -28.59375 C 10.945312 -27.65625 10.65625 -26.679688 10.4375 -25.671875 C 10.226562 -24.660156 10.101562 -23.6875 10.0625 -22.75 C 9.976562 -21.738281 9.957031 -20.675781 10 -19.5625 C 10.039062 -18.445312 10.164062 -17.332031 10.375 -16.21875 C 10.59375 -15.113281 10.894531 -14.0625 11.28125 -13.0625 C 11.675781 -12.070312 12.203125 -11.1875 12.859375 -10.40625 C 13.878906 -9.238281 15.0625 -8.429688 16.40625 -7.984375 C 17.75 -7.535156 19.082031 -7.46875 20.40625 -7.78125 C 22.550781 -8.25 24.191406 -9.671875 25.328125 -12.046875 C 25.796875 -12.898438 26.144531 -13.875 26.375 -14.96875 Z M 26.375 -14.96875 "/></g></g></g><g fill="#464646" fill-opacity="1"><g transform="translate(237.969904, 88.682912)"><g><path d="M 10.578125 -9.359375 C 10.578125 -8.347656 10.21875 -7.476562 9.5 -6.75 C 8.78125 -6.03125 7.914062 -5.671875 6.90625 -5.671875 C 5.882812 -5.671875 5.015625 -6.03125 4.296875 -6.75 C 3.578125 -7.476562 3.21875 -8.347656 3.21875 -9.359375 C 3.21875 -10.367188 3.578125 -11.242188 4.296875 -11.984375 C 5.015625 -12.722656 5.882812 -13.09375 6.90625 -13.09375 C 7.914062 -13.09375 8.78125 -12.722656 9.5 -11.984375 C 10.21875 -11.242188 10.578125 -10.367188 10.578125 -9.359375 Z M 10.578125 -31 C 10.578125 -29.976562 10.21875 -29.109375 9.5 -28.390625 C 8.78125 -27.671875 7.914062 -27.3125 6.90625 -27.3125 C 5.882812 -27.3125 5.015625 -27.671875 4.296875 -28.390625 C 3.578125 -29.109375 3.21875 -29.976562 3.21875 -31 C 3.21875 -32.007812 3.578125 -32.882812 4.296875 -33.625 C 5.015625 -34.363281 5.882812 -34.734375 6.90625 -34.734375 C 7.914062 -34.734375 8.78125 -34.363281 9.5 -33.625 C 10.21875 -32.882812 10.578125 -32.007812 10.578125 -31 Z M 10.578125 -31 "/></g></g></g><g fill="#464646" fill-opacity="1"><g transform="translate(251.594465, 88.682912)"><g><path d="M 33.21875 -38.546875 C 33.257812 -38.265625 33.28125 -38.007812 33.28125 -37.78125 C 33.28125 -37.550781 33.28125 -37.316406 33.28125 -37.078125 L 33.28125 -34.6875 L 32.921875 -4.328125 L 32.921875 -3.75 C 32.921875 -3.507812 32.863281 -3.15625 32.75 -2.6875 C 32.707031 -2.488281 32.644531 -2.28125 32.5625 -2.0625 C 32.488281 -1.851562 32.414062 -1.632812 32.34375 -1.40625 C 32.144531 -0.9375 31.867188 -0.582031 31.515625 -0.34375 C 31.210938 -0.0390625 30.707031 0.171875 30 0.296875 C 28.90625 0.523438 27.910156 0.425781 27.015625 0 C 26.515625 -0.3125 26.164062 -0.703125 25.96875 -1.171875 C 25.882812 -1.242188 25.804688 -1.359375 25.734375 -1.515625 C 25.734375 -1.597656 25.691406 -1.71875 25.609375 -1.875 C 25.535156 -2.0625 25.476562 -2.265625 25.4375 -2.484375 C 25.394531 -2.703125 25.359375 -2.925781 25.328125 -3.15625 C 25.328125 -3.351562 25.316406 -3.546875 25.296875 -3.734375 C 25.273438 -3.929688 25.242188 -4.128906 25.203125 -4.328125 C 25.128906 -4.523438 25.09375 -4.691406 25.09375 -4.828125 C 25.09375 -4.960938 25.09375 -5.128906 25.09375 -5.328125 C 25.164062 -5.484375 25.203125 -5.773438 25.203125 -6.203125 L 25.265625 -10.8125 L 25.328125 -18.1875 L 22.171875 -18.1875 L 10.296875 -18.125 L 10.171875 -4.328125 L 10.171875 -3.75 C 10.171875 -3.507812 10.113281 -3.15625 10 -2.6875 C 9.957031 -2.488281 9.894531 -2.28125 9.8125 -2.0625 C 9.738281 -1.851562 9.664062 -1.632812 9.59375 -1.40625 C 9.394531 -0.9375 9.117188 -0.582031 8.765625 -0.34375 C 8.460938 -0.0390625 7.957031 0.171875 7.25 0.296875 C 6.15625 0.523438 5.160156 0.425781 4.265625 0 C 3.878906 -0.226562 3.507812 -0.617188 3.15625 -1.171875 C 3.082031 -1.328125 3.046875 -1.441406 3.046875 -1.515625 L 2.859375 -1.875 C 2.785156 -2.0625 2.726562 -2.265625 2.6875 -2.484375 C 2.644531 -2.703125 2.609375 -2.925781 2.578125 -3.15625 C 2.578125 -3.351562 2.554688 -3.546875 2.515625 -3.734375 C 2.472656 -3.929688 2.429688 -4.128906 2.390625 -4.328125 C 2.359375 -4.640625 2.359375 -4.972656 2.390625 -5.328125 L 2.390625 -6.203125 L 2.453125 -10.8125 L 2.578125 -19.421875 C 2.609375 -20.660156 2.625 -21.941406 2.625 -23.265625 C 2.625 -24.597656 2.625 -25.96875 2.625 -27.375 C 2.59375 -28.769531 2.582031 -30.015625 2.59375 -31.109375 C 2.613281 -32.203125 2.664062 -33.429688 2.75 -34.796875 L 2.75 -35.03125 C 2.789062 -35.414062 2.8125 -35.8125 2.8125 -36.21875 C 2.8125 -36.632812 2.828125 -37.054688 2.859375 -37.484375 C 2.898438 -37.878906 2.96875 -38.257812 3.0625 -38.625 C 3.164062 -39 3.316406 -39.378906 3.515625 -39.765625 C 3.628906 -40.078125 3.78125 -40.335938 3.96875 -40.546875 C 4.164062 -40.765625 4.398438 -40.972656 4.671875 -41.171875 C 5.296875 -41.484375 5.921875 -41.640625 6.546875 -41.640625 C 6.859375 -41.640625 7.128906 -41.628906 7.359375 -41.609375 C 7.597656 -41.585938 7.835938 -41.5625 8.078125 -41.53125 C 8.535156 -41.488281 8.984375 -41.253906 9.421875 -40.828125 C 9.734375 -40.546875 9.945312 -40.234375 10.0625 -39.890625 C 10.257812 -39.378906 10.375 -38.929688 10.40625 -38.546875 C 10.445312 -38.265625 10.46875 -38.007812 10.46875 -37.78125 C 10.46875 -37.550781 10.46875 -37.316406 10.46875 -37.078125 L 10.46875 -34.6875 L 10.359375 -25.03125 C 10.660156 -25.03125 11.015625 -25.03125 11.421875 -25.03125 C 11.835938 -25.03125 12.316406 -25.050781 12.859375 -25.09375 C 14.890625 -25.09375 16.910156 -25.070312 18.921875 -25.03125 C 20.929688 -24.988281 23.046875 -24.96875 25.265625 -24.96875 L 25.328125 -24.96875 C 25.328125 -26.726562 25.332031 -28.40625 25.34375 -30 C 25.363281 -31.601562 25.414062 -33.28125 25.5 -35.03125 C 25.5 -35.414062 25.507812 -35.8125 25.53125 -36.21875 C 25.550781 -36.632812 25.578125 -37.054688 25.609375 -37.484375 C 25.648438 -37.878906 25.71875 -38.257812 25.8125 -38.625 C 25.914062 -39 26.066406 -39.378906 26.265625 -39.765625 C 26.335938 -40.078125 26.476562 -40.335938 26.6875 -40.546875 C 26.90625 -40.765625 27.171875 -40.972656 27.484375 -41.171875 C 28.035156 -41.484375 28.640625 -41.640625 29.296875 -41.640625 C 29.609375 -41.640625 29.890625 -41.628906 30.140625 -41.609375 C 30.398438 -41.585938 30.628906 -41.5625 30.828125 -41.53125 C 31.367188 -41.445312 31.816406 -41.210938 32.171875 -40.828125 C 32.484375 -40.628906 32.695312 -40.316406 32.8125 -39.890625 C 32.882812 -39.648438 32.953125 -39.421875 33.015625 -39.203125 C 33.078125 -38.992188 33.144531 -38.773438 33.21875 -38.546875 Z M 33.21875 -38.546875 "/></g></g></g><g fill="#464646" fill-opacity="1"><g transform="translate(287.205433, 88.682912)"><g><path d="M 10.359375 -34.390625 L 10.234375 -25.203125 L 12.578125 -25.203125 C 14.171875 -25.242188 15.59375 -25.265625 16.84375 -25.265625 C 18.09375 -25.265625 19.476562 -25.242188 21 -25.203125 L 21.28125 -25.203125 C 21.75 -25.203125 22.207031 -25.191406 22.65625 -25.171875 C 23.101562 -25.148438 23.546875 -25.140625 23.984375 -25.140625 C 24.453125 -25.109375 24.898438 -25.039062 25.328125 -24.9375 C 25.753906 -24.84375 26.179688 -24.738281 26.609375 -24.625 C 27.273438 -24.382812 27.820312 -24.03125 28.25 -23.5625 C 28.632812 -23.0625 28.828125 -22.5 28.828125 -21.875 C 28.828125 -21.675781 28.828125 -21.453125 28.828125 -21.203125 C 28.828125 -20.953125 28.789062 -20.726562 28.71875 -20.53125 C 28.632812 -20.101562 28.378906 -19.710938 27.953125 -19.359375 C 27.753906 -19.085938 27.382812 -18.894531 26.84375 -18.78125 C 26.332031 -18.625 25.828125 -18.523438 25.328125 -18.484375 C 24.773438 -18.367188 24.226562 -18.3125 23.6875 -18.3125 L 20.9375 -18.3125 L 10.125 -18.25 L 10 -6.78125 L 21.640625 -6.671875 L 24.390625 -6.671875 C 24.703125 -6.671875 24.992188 -6.671875 25.265625 -6.671875 C 25.535156 -6.671875 25.789062 -6.648438 26.03125 -6.609375 C 26.34375 -6.523438 26.625 -6.472656 26.875 -6.453125 C 27.125 -6.441406 27.367188 -6.394531 27.609375 -6.3125 C 28.078125 -6.15625 28.46875 -5.941406 28.78125 -5.671875 C 29.164062 -5.285156 29.414062 -4.875 29.53125 -4.4375 C 29.570312 -4.25 29.601562 -4.046875 29.625 -3.828125 C 29.644531 -3.617188 29.632812 -3.394531 29.59375 -3.15625 C 29.59375 -2.53125 29.398438 -1.96875 29.015625 -1.46875 C 28.546875 -0.914062 28 -0.5625 27.375 -0.40625 C 26.550781 -0.0625 25.65625 0.109375 24.6875 0.109375 C 24.25 0.148438 23.796875 0.171875 23.328125 0.171875 C 22.867188 0.171875 22.421875 0.191406 21.984375 0.234375 L 21.640625 0.234375 C 18.597656 0.304688 15.441406 0.304688 12.171875 0.234375 C 11.390625 0.234375 10.765625 0.222656 10.296875 0.203125 C 9.828125 0.179688 9.40625 0.171875 9.03125 0.171875 C 8.664062 0.171875 8.285156 0.171875 7.890625 0.171875 C 7.503906 0.171875 7 0.171875 6.375 0.171875 C 5.476562 0.253906 4.738281 0.0976562 4.15625 -0.296875 C 3.726562 -0.566406 3.394531 -0.9375 3.15625 -1.40625 C 3.039062 -1.519531 2.984375 -1.632812 2.984375 -1.75 C 2.941406 -1.832031 2.898438 -1.890625 2.859375 -1.921875 C 2.828125 -1.960938 2.789062 -2.023438 2.75 -2.109375 C 2.664062 -2.296875 2.601562 -2.5 2.5625 -2.71875 C 2.53125 -2.9375 2.515625 -3.140625 2.515625 -3.328125 C 2.472656 -3.523438 2.441406 -3.71875 2.421875 -3.90625 C 2.398438 -4.101562 2.375 -4.300781 2.34375 -4.5 L 2.34375 -5.4375 C 2.34375 -5.59375 2.347656 -5.75 2.359375 -5.90625 C 2.378906 -6.0625 2.390625 -6.21875 2.390625 -6.375 L 2.390625 -10.9375 L 2.515625 -19.359375 L 2.515625 -27.140625 C 2.515625 -28.535156 2.523438 -29.78125 2.546875 -30.875 C 2.566406 -31.96875 2.59375 -33.160156 2.625 -34.453125 L 2.625 -34.734375 C 2.664062 -35.171875 2.695312 -35.570312 2.71875 -35.9375 C 2.738281 -36.3125 2.75 -36.691406 2.75 -37.078125 C 2.789062 -37.859375 3.003906 -38.617188 3.390625 -39.359375 C 3.546875 -39.671875 3.710938 -39.941406 3.890625 -40.171875 C 4.066406 -40.410156 4.3125 -40.609375 4.625 -40.765625 C 5.207031 -41.117188 5.8125 -41.296875 6.4375 -41.296875 C 6.75 -41.296875 6.984375 -41.273438 7.140625 -41.234375 L 7.140625 -41.296875 C 7.835938 -41.296875 8.398438 -41.296875 8.828125 -41.296875 C 9.253906 -41.296875 9.671875 -41.296875 10.078125 -41.296875 C 10.492188 -41.296875 10.9375 -41.300781 11.40625 -41.3125 C 11.875 -41.332031 12.515625 -41.34375 13.328125 -41.34375 C 14.890625 -41.382812 16.375 -41.40625 17.78125 -41.40625 C 19.1875 -41.40625 20.628906 -41.382812 22.109375 -41.34375 L 22.34375 -41.34375 C 22.769531 -41.3125 23.21875 -41.296875 23.6875 -41.296875 C 24.15625 -41.296875 24.601562 -41.273438 25.03125 -41.234375 C 25.457031 -41.234375 25.882812 -41.179688 26.3125 -41.078125 C 26.75 -40.984375 27.179688 -40.859375 27.609375 -40.703125 C 28.265625 -40.503906 28.804688 -40.171875 29.234375 -39.703125 C 29.585938 -39.160156 29.765625 -38.617188 29.765625 -38.078125 C 29.765625 -37.835938 29.765625 -37.609375 29.765625 -37.390625 C 29.765625 -37.179688 29.726562 -36.976562 29.65625 -36.78125 C 29.613281 -36.394531 29.378906 -35.988281 28.953125 -35.5625 C 28.796875 -35.476562 28.628906 -35.378906 28.453125 -35.265625 C 28.273438 -35.148438 28.070312 -35.050781 27.84375 -34.96875 C 27.601562 -34.894531 27.359375 -34.847656 27.109375 -34.828125 C 26.859375 -34.804688 26.613281 -34.773438 26.375 -34.734375 C 26.0625 -34.660156 25.773438 -34.625 25.515625 -34.625 C 25.265625 -34.625 24.988281 -34.625 24.6875 -34.625 L 22.046875 -34.625 L 10.359375 -34.5625 Z M 10.359375 -34.390625 "/></g></g></g><g fill="#464646" fill-opacity="1"><g transform="translate(319.307931, 88.682912)"><g><path d="M 33.796875 -38.890625 C 33.835938 -38.691406 33.847656 -38.492188 33.828125 -38.296875 C 33.804688 -38.109375 33.738281 -37.894531 33.625 -37.65625 C 33.46875 -37.113281 33.296875 -36.628906 33.109375 -36.203125 C 32.867188 -35.660156 32.570312 -35.191406 32.21875 -34.796875 C 32.0625 -34.566406 31.914062 -34.34375 31.78125 -34.125 C 31.644531 -33.90625 31.519531 -33.703125 31.40625 -33.515625 L 30.640625 -32.515625 L 23.15625 -21.703125 L 21.8125 -20 L 21.8125 -4.4375 C 21.738281 -4.25 21.703125 -4.054688 21.703125 -3.859375 C 21.703125 -3.660156 21.679688 -3.445312 21.640625 -3.21875 C 21.554688 -3.019531 21.492188 -2.832031 21.453125 -2.65625 C 21.421875 -2.476562 21.363281 -2.296875 21.28125 -2.109375 C 21.207031 -1.953125 21.171875 -1.832031 21.171875 -1.75 C 21.128906 -1.675781 21.097656 -1.617188 21.078125 -1.578125 C 21.054688 -1.535156 21.03125 -1.476562 21 -1.40625 C 20.757812 -1.007812 20.425781 -0.65625 20 -0.34375 C 19.144531 0.0820312 18.171875 0.175781 17.078125 -0.0625 C 16.453125 -0.132812 15.984375 -0.328125 15.671875 -0.640625 C 15.472656 -0.753906 15.316406 -0.890625 15.203125 -1.046875 C 15.085938 -1.203125 14.972656 -1.378906 14.859375 -1.578125 C 14.773438 -1.816406 14.691406 -2.03125 14.609375 -2.21875 C 14.535156 -2.414062 14.484375 -2.613281 14.453125 -2.8125 C 14.367188 -3 14.328125 -3.179688 14.328125 -3.359375 C 14.328125 -3.535156 14.328125 -3.703125 14.328125 -3.859375 L 14.328125 -19.828125 L 13.046875 -21.8125 L 5.4375 -32.578125 L 4.796875 -33.625 C 4.554688 -33.976562 4.265625 -34.390625 3.921875 -34.859375 C 3.609375 -35.285156 3.332031 -35.753906 3.09375 -36.265625 C 2.9375 -36.492188 2.8125 -36.734375 2.71875 -36.984375 C 2.625 -37.242188 2.535156 -37.507812 2.453125 -37.78125 C 2.335938 -38.164062 2.316406 -38.554688 2.390625 -38.953125 C 2.515625 -39.453125 2.75 -39.878906 3.09375 -40.234375 C 3.488281 -40.585938 3.898438 -40.863281 4.328125 -41.0625 C 4.867188 -41.445312 5.492188 -41.601562 6.203125 -41.53125 C 6.628906 -41.53125 7 -41.453125 7.3125 -41.296875 C 7.625 -41.140625 7.9375 -40.960938 8.25 -40.765625 C 8.59375 -40.492188 8.929688 -40.203125 9.265625 -39.890625 C 9.597656 -39.578125 9.898438 -39.242188 10.171875 -38.890625 C 10.484375 -38.503906 10.773438 -38.144531 11.046875 -37.8125 C 11.328125 -37.476562 11.601562 -37.097656 11.875 -36.671875 L 12.046875 -36.4375 C 12.984375 -35.1875 13.859375 -33.984375 14.671875 -32.828125 C 15.492188 -31.679688 16.351562 -30.445312 17.25 -29.125 C 17.332031 -29.050781 17.453125 -28.894531 17.609375 -28.65625 C 17.765625 -28.425781 17.9375 -28.15625 18.125 -27.84375 C 18.28125 -28.113281 18.425781 -28.351562 18.5625 -28.5625 C 18.707031 -28.78125 18.816406 -28.929688 18.890625 -29.015625 C 19.785156 -30.335938 20.640625 -31.582031 21.453125 -32.75 C 22.273438 -33.914062 23.15625 -35.125 24.09375 -36.375 L 24.21875 -36.609375 C 24.53125 -36.960938 24.8125 -37.320312 25.0625 -37.6875 C 25.3125 -38.0625 25.59375 -38.441406 25.90625 -38.828125 C 26.414062 -39.535156 27.097656 -40.140625 27.953125 -40.640625 C 28.578125 -41.078125 29.222656 -41.351562 29.890625 -41.46875 C 30.628906 -41.539062 31.269531 -41.382812 31.8125 -41 C 32.050781 -40.84375 32.273438 -40.703125 32.484375 -40.578125 C 32.703125 -40.460938 32.890625 -40.328125 33.046875 -40.171875 C 33.359375 -39.828125 33.609375 -39.398438 33.796875 -38.890625 Z M 33.796875 -38.890625 "/></g></g></g><g fill="#464646" fill-opacity="1"><g transform="translate(355.503643, 88.682912)"><g><path d="M 34.265625 -38.1875 C 34.503906 -36.320312 34.640625 -34.148438 34.671875 -31.671875 C 34.710938 -29.191406 34.6875 -26.691406 34.59375 -24.171875 C 34.5 -21.660156 34.3125 -19.285156 34.03125 -17.046875 C 33.757812 -14.804688 33.429688 -13.003906 33.046875 -11.640625 C 32.773438 -10.816406 32.453125 -9.96875 32.078125 -9.09375 C 31.703125 -8.21875 31.300781 -7.425781 30.875 -6.71875 C 30.25 -5.664062 29.488281 -4.738281 28.59375 -3.9375 C 27.695312 -3.144531 26.710938 -2.460938 25.640625 -1.890625 C 24.566406 -1.328125 23.4375 -0.890625 22.25 -0.578125 C 21.0625 -0.265625 19.882812 -0.09375 18.71875 -0.0625 C 16.644531 0.0195312 14.679688 -0.273438 12.828125 -0.953125 C 10.984375 -1.640625 9.28125 -2.722656 7.71875 -4.203125 C 6.550781 -5.335938 5.613281 -6.546875 4.90625 -7.828125 C 4.207031 -9.117188 3.660156 -10.472656 3.265625 -11.890625 C 2.878906 -13.316406 2.632812 -14.789062 2.53125 -16.3125 C 2.4375 -17.832031 2.390625 -19.394531 2.390625 -21 C 2.390625 -21.738281 2.378906 -22.660156 2.359375 -23.765625 C 2.347656 -24.878906 2.34375 -26.03125 2.34375 -27.21875 C 2.34375 -28.414062 2.34375 -29.578125 2.34375 -30.703125 C 2.34375 -31.835938 2.359375 -32.789062 2.390625 -33.5625 C 2.390625 -34.070312 2.390625 -34.628906 2.390625 -35.234375 C 2.390625 -35.835938 2.421875 -36.441406 2.484375 -37.046875 C 2.546875 -37.648438 2.65625 -38.234375 2.8125 -38.796875 C 2.96875 -39.367188 3.203125 -39.890625 3.515625 -40.359375 C 3.859375 -40.859375 4.34375 -41.222656 4.96875 -41.453125 C 5.59375 -41.691406 6.242188 -41.8125 6.921875 -41.8125 C 7.609375 -41.8125 8.265625 -41.675781 8.890625 -41.40625 C 9.515625 -41.132812 10.019531 -40.742188 10.40625 -40.234375 C 10.601562 -39.921875 10.738281 -39.609375 10.8125 -39.296875 C 10.894531 -38.984375 10.957031 -38.632812 11 -38.25 C 11.070312 -36.957031 11.117188 -35.492188 11.140625 -33.859375 C 11.160156 -32.222656 11.160156 -30.632812 11.140625 -29.09375 C 11.117188 -27.550781 11.085938 -26.132812 11.046875 -24.84375 C 11.015625 -23.5625 11 -22.609375 11 -21.984375 C 11 -19.648438 11.113281 -17.535156 11.34375 -15.640625 C 11.582031 -13.753906 12.128906 -12.1875 12.984375 -10.9375 C 13.765625 -9.800781 14.679688 -9.078125 15.734375 -8.765625 C 16.785156 -8.460938 17.835938 -8.367188 18.890625 -8.484375 C 19.867188 -8.597656 20.851562 -8.957031 21.84375 -9.5625 C 22.832031 -10.164062 23.625 -11.050781 24.21875 -12.21875 C 24.445312 -12.644531 24.640625 -13.128906 24.796875 -13.671875 C 24.953125 -14.222656 25.066406 -14.734375 25.140625 -15.203125 C 25.296875 -16.679688 25.429688 -18.40625 25.546875 -20.375 C 25.671875 -22.34375 25.769531 -24.359375 25.84375 -26.421875 C 25.925781 -28.492188 25.96875 -30.523438 25.96875 -32.515625 C 25.96875 -34.503906 25.945312 -36.296875 25.90625 -37.890625 C 25.988281 -38.597656 26.203125 -39.242188 26.546875 -39.828125 C 26.859375 -40.335938 27.304688 -40.785156 27.890625 -41.171875 C 28.484375 -41.554688 29.285156 -41.75 30.296875 -41.75 C 31.109375 -41.71875 31.769531 -41.515625 32.28125 -41.140625 C 32.789062 -40.773438 33.203125 -40.375 33.515625 -39.9375 C 33.859375 -39.4375 34.109375 -38.851562 34.265625 -38.1875 Z M 34.265625 -38.1875 "/></g></g></g><g fill="#464646" fill-opacity="1"><g transform="translate(392.576455, 88.682912)"><g><path d="M 37.953125 -4.203125 C 37.910156 -3.742188 37.847656 -3.257812 37.765625 -2.75 C 37.691406 -2.238281 37.5625 -1.769531 37.375 -1.34375 C 37.175781 -0.875 36.921875 -0.523438 36.609375 -0.296875 C 36.179688 0.0976562 35.675781 0.3125 35.09375 0.34375 C 34.539062 0.539062 34.007812 0.597656 33.5 0.515625 C 33 0.441406 32.535156 0.304688 32.109375 0.109375 C 31.566406 -0.234375 31.164062 -0.648438 30.90625 -1.140625 C 30.65625 -1.628906 30.46875 -2.144531 30.34375 -2.6875 C 30.226562 -3.238281 30.171875 -3.804688 30.171875 -4.390625 C 30.171875 -4.972656 30.171875 -5.519531 30.171875 -6.03125 L 30.171875 -10.578125 L 30.125 -19.53125 C 30.125 -20.15625 30.125 -20.640625 30.125 -20.984375 C 30.125 -21.335938 30.125 -21.660156 30.125 -21.953125 C 30.125 -22.253906 30.113281 -22.585938 30.09375 -22.953125 C 30.070312 -23.328125 30.0625 -23.863281 30.0625 -24.5625 C 30.0625 -24.675781 30.070312 -24.878906 30.09375 -25.171875 C 30.113281 -25.460938 30.082031 -26.253906 30 -27.546875 C 28.476562 -25.015625 27.21875 -22.976562 26.21875 -21.4375 C 25.226562 -19.894531 24.390625 -18.703125 23.703125 -17.859375 C 23.023438 -17.023438 22.429688 -16.460938 21.921875 -16.171875 C 21.421875 -15.878906 20.898438 -15.710938 20.359375 -15.671875 C 20.046875 -15.628906 19.734375 -15.6875 19.421875 -15.84375 C 19.109375 -16 18.804688 -16.191406 18.515625 -16.421875 C 18.222656 -16.660156 17.945312 -16.90625 17.6875 -17.15625 C 17.4375 -17.414062 17.234375 -17.660156 17.078125 -17.890625 C 16.140625 -19.066406 15.085938 -20.472656 13.921875 -22.109375 C 12.753906 -23.742188 11.546875 -25.734375 10.296875 -28.078125 C 10.296875 -28.035156 10.285156 -27.390625 10.265625 -26.140625 C 10.242188 -24.890625 10.234375 -23.335938 10.234375 -21.484375 C 10.234375 -19.640625 10.222656 -17.65625 10.203125 -15.53125 C 10.179688 -13.40625 10.160156 -11.425781 10.140625 -9.59375 C 10.128906 -7.757812 10.101562 -6.226562 10.0625 -5 C 10.019531 -3.769531 9.976562 -3.15625 9.9375 -3.15625 C 9.9375 -2.488281 9.78125 -1.875 9.46875 -1.3125 C 9.15625 -0.75 8.734375 -0.296875 8.203125 0.046875 C 7.679688 0.398438 7.070312 0.597656 6.375 0.640625 C 5.675781 0.679688 4.914062 0.488281 4.09375 0.0625 C 3.582031 -0.25 3.203125 -0.695312 2.953125 -1.28125 C 2.703125 -1.863281 2.535156 -2.410156 2.453125 -2.921875 C 2.410156 -3.472656 2.378906 -4 2.359375 -4.5 C 2.347656 -5.007812 2.34375 -5.535156 2.34375 -6.078125 L 2.390625 -10.640625 L 2.453125 -19.65625 L 2.453125 -27.484375 C 2.453125 -30.878906 2.570312 -34.210938 2.8125 -37.484375 C 2.8125 -37.910156 2.859375 -38.3125 2.953125 -38.6875 C 3.046875 -39.0625 3.171875 -39.421875 3.328125 -39.765625 C 3.640625 -40.390625 4.050781 -40.859375 4.5625 -41.171875 C 5.144531 -41.523438 5.769531 -41.703125 6.4375 -41.703125 C 6.707031 -41.703125 6.96875 -41.691406 7.21875 -41.671875 C 7.476562 -41.648438 7.722656 -41.617188 7.953125 -41.578125 C 8.734375 -41.421875 9.40625 -40.960938 9.96875 -40.203125 C 10.53125 -39.441406 11.066406 -38.789062 11.578125 -38.25 C 11.890625 -37.894531 12.21875 -37.460938 12.5625 -36.953125 C 12.914062 -36.453125 13.269531 -35.925781 13.625 -35.375 C 13.976562 -34.832031 14.3125 -34.304688 14.625 -33.796875 C 14.9375 -33.296875 15.207031 -32.847656 15.4375 -32.453125 C 16.445312 -30.816406 17.351562 -29.316406 18.15625 -27.953125 C 18.957031 -26.585938 19.707031 -25.421875 20.40625 -24.453125 C 20.53125 -24.566406 20.664062 -24.726562 20.8125 -24.9375 C 20.96875 -25.15625 21.132812 -25.390625 21.3125 -25.640625 C 21.488281 -25.898438 21.644531 -26.144531 21.78125 -26.375 C 21.914062 -26.613281 22.023438 -26.8125 22.109375 -26.96875 C 22.492188 -27.582031 22.878906 -28.191406 23.265625 -28.796875 C 23.660156 -29.398438 24.082031 -30.039062 24.53125 -30.71875 C 24.976562 -31.40625 25.445312 -32.160156 25.9375 -32.984375 C 26.425781 -33.804688 27 -34.742188 27.65625 -35.796875 C 27.9375 -36.265625 28.289062 -36.828125 28.71875 -37.484375 C 29.144531 -38.148438 29.628906 -38.796875 30.171875 -39.421875 C 30.722656 -40.046875 31.300781 -40.582031 31.90625 -41.03125 C 32.507812 -41.476562 33.125 -41.703125 33.75 -41.703125 C 34.0625 -41.703125 34.332031 -41.691406 34.5625 -41.671875 C 34.800781 -41.648438 35.035156 -41.617188 35.265625 -41.578125 C 35.734375 -41.546875 36.179688 -41.332031 36.609375 -40.9375 C 36.921875 -40.625 37.15625 -40.289062 37.3125 -39.9375 C 37.46875 -39.4375 37.566406 -39.007812 37.609375 -38.65625 C 37.640625 -38.382812 37.664062 -38.128906 37.6875 -37.890625 C 37.707031 -37.660156 37.71875 -37.429688 37.71875 -37.203125 C 37.71875 -35.015625 37.738281 -32.847656 37.78125 -30.703125 C 37.820312 -28.554688 37.84375 -26.394531 37.84375 -24.21875 C 37.84375 -21.5625 37.847656 -18.828125 37.859375 -16.015625 C 37.878906 -13.210938 37.890625 -10.488281 37.890625 -7.84375 C 37.890625 -7.289062 37.910156 -6.703125 37.953125 -6.078125 C 37.992188 -5.453125 37.992188 -4.828125 37.953125 -4.203125 Z M 37.953125 -4.203125 "/></g></g></g></svg>