
<svg version="1.0" xmlns="http://www.w3.org/2000/svg"
 width="96.000000pt" height="96.000000pt" viewBox="0 0 96.000000 96.000000"
 preserveAspectRatio="xMidYMid meet">
<g transform="translate(0.000000,96.000000) scale(0.100000,-0.100000)"
fill="#000000" stroke="none">
<path d="M187 853 c-4 -3 -7 -13 -7 -22 0 -9 -15 -23 -33 -31 -61 -29 -67 -56
-67 -320 0 -358 -21 -340 400 -340 421 0 400 -18 400 340 0 346 5 340 -301
340 -188 0 -197 1 -202 20 -5 18 -14 20 -94 20 -49 0 -93 -3 -96 -7z m610
-115 c23 -21 23 -24 23 -257 0 -227 -1 -235 -22 -258 l-21 -23 -296 0 c-289 0
-295 0 -318 22 -23 21 -23 24 -23 257 0 227 1 235 22 258 l21 23 296 0 c289 0
295 0 318 -22z"/>
<path d="M224 646 c-13 -35 3 -47 58 -44 49 3 53 5 53 28 0 23 -4 25 -53 28
-40 2 -54 -1 -58 -12z"/>
<path d="M480 638 c-98 -50 -128 -167 -67 -259 27 -41 98 -79 147 -79 20 0 56
10 80 22 132 67 132 249 0 316 -24 12 -60 22 -80 22 -20 0 -56 -10 -80 -22z
m164 -77 c26 -27 31 -39 31 -81 0 -43 -5 -54 -33 -82 -28 -28 -39 -33 -82 -33
-43 0 -54 5 -82 33 -28 28 -33 39 -33 81 0 52 25 92 70 112 37 16 96 3 129
-30z"/>
</g>
</svg>
