<svg width="35" height="35" viewBox="0 0 35 35" fill="none" xmlns="http://www.w3.org/2000/svg">
<path d="M12.7023 0C16.0711 0 19.302 1.36964 21.6842 3.80761C24.0663 6.24558 25.4046 9.55219 25.4046 13C25.4046 16.22 24.2516 19.18 22.356 21.46L22.8837 22H24.4275L34.1985 32L31.2672 35L21.4962 25V23.42L20.9685 22.88C18.7408 24.82 15.8486 26 12.7023 26C9.33343 26 6.10256 24.6304 3.72041 22.1924C1.33827 19.7544 0 16.4478 0 13C0 9.55219 1.33827 6.24558 3.72041 3.80761C6.10256 1.36964 9.33343 0 12.7023 0ZM12.7023 4C7.81679 4 3.9084 8 3.9084 13C3.9084 18 7.81679 22 12.7023 22C17.5878 22 21.4962 18 21.4962 13C21.4962 8 17.5878 4 12.7023 4Z" fill="#464646"/>
</svg>
