<svg width="35" height="35" viewBox="0 0 35 35" fill="none" xmlns="http://www.w3.org/2000/svg">
<path d="M19.6695 35H14.5332C14.218 35.0001 13.9139 34.8807 13.6795 34.665C13.4451 34.4493 13.2971 34.1524 13.2639 33.8316L12.8836 30.167C12.3527 29.9821 11.834 29.7623 11.3309 29.5088L8.5326 31.8247C8.28769 32.0266 7.97858 32.1288 7.66455 32.1118C7.35053 32.0948 7.0537 31.9597 6.83102 31.7325L3.19898 28.0157C2.97695 27.7878 2.84495 27.484 2.8283 27.1627C2.81166 26.8413 2.91154 26.525 3.1088 26.2744L5.37276 23.4073C5.12466 22.8925 4.90952 22.3618 4.72871 21.8184L1.14176 21.4266C0.828421 21.3927 0.538434 21.2413 0.327637 21.0016C0.11684 20.7619 0.000137691 20.4509 0 20.1285V14.8715C0.000137691 14.5491 0.11684 14.2381 0.327637 13.9984C0.538434 13.7587 0.828421 13.6073 1.14176 13.5734L4.72275 13.1842C4.90357 12.6408 5.1187 12.1101 5.3668 11.5953L3.10284 8.72823C2.90559 8.47761 2.8057 8.16128 2.82235 7.83993C2.83899 7.51858 2.97099 7.21482 3.19303 6.98694L6.82506 3.27015C7.04775 3.04293 7.34457 2.90785 7.6586 2.89082C7.97262 2.87379 8.28174 2.97601 8.52665 3.17786L11.3283 5.49378C11.8315 5.24033 12.3501 5.02047 12.881 4.83557L13.2613 1.17102C13.294 0.849298 13.4421 0.551424 13.6771 0.335089C13.9121 0.118753 14.2172 -0.000650607 14.5332 2.6665e-06H19.6695C19.9847 -7.14323e-05 20.2888 0.119257 20.5232 0.334994C20.7576 0.55073 20.9057 0.847606 20.9389 1.16841L21.3183 4.83296C21.8495 5.01785 22.3684 5.23772 22.8719 5.49117L25.6727 3.17525C25.9176 2.97339 26.2267 2.87118 26.5407 2.88821C26.8547 2.90524 27.1516 3.04032 27.3743 3.26754L31.0063 6.98433C31.2283 7.21221 31.3603 7.51596 31.377 7.83732C31.3936 8.15867 31.2937 8.475 31.0965 8.72562L28.8325 11.5927C29.0803 12.1076 29.2954 12.6384 29.4766 13.1816L33.0576 13.5708C33.3708 13.6049 33.6605 13.7564 33.8712 13.9961C34.0818 14.2357 34.1984 14.5466 34.1985 14.8689V20.1259C34.1991 20.4481 34.0833 20.7592 33.8733 20.9993C33.6633 21.2394 33.374 21.3916 33.061 21.4266L29.48 21.8158C29.2988 22.359 29.0837 22.8898 28.8359 23.4047L31.0999 26.2718C31.2971 26.5224 31.397 26.8387 31.3804 27.1601C31.3637 27.4814 31.2317 27.7852 31.0097 28.0131L27.3777 31.7325C27.155 31.9597 26.8582 32.0948 26.5441 32.1118C26.2301 32.1288 25.921 32.0266 25.6761 31.8247L22.8753 29.5088C22.3718 29.7623 21.8529 29.9821 21.3217 30.167L20.9423 33.8316C20.909 34.153 20.7605 34.4504 20.5254 34.6662C20.2903 34.882 19.9853 35.0009 19.6695 35ZM15.6793 32.3881H18.5201L18.868 29.0308C18.8953 28.7681 18.9999 28.5199 19.1679 28.3193C19.3359 28.1186 19.5595 27.9748 19.809 27.9068C20.7079 27.6615 21.5709 27.2947 22.375 26.8159C22.5989 26.6824 22.8572 26.6218 23.1156 26.6422C23.3739 26.6626 23.6201 26.7629 23.8214 26.93L26.3873 29.0517L28.3961 26.9961L26.3193 24.3781C26.1561 24.1721 26.058 23.9202 26.0381 23.6558C26.0182 23.3914 26.0774 23.1271 26.2078 22.898C26.6747 22.0756 27.032 21.1931 27.2705 20.2739C27.3369 20.0184 27.4776 19.7895 27.6738 19.6176C27.8701 19.4456 28.1128 19.3387 28.3697 19.3109L31.6495 18.954V16.0469L28.3697 15.6899C28.1128 15.6622 27.8701 15.5552 27.6738 15.3833C27.4776 15.2113 27.3369 14.9825 27.2705 14.727C27.0321 13.8074 26.6747 12.9246 26.2078 12.102C26.0774 11.8729 26.0182 11.6085 26.0381 11.3442C26.058 11.0798 26.1561 10.8278 26.3193 10.6219L28.3927 7.99602L26.3839 5.94042L23.8179 8.06219C23.6167 8.22922 23.3705 8.32959 23.1122 8.34997C22.8538 8.37034 22.5955 8.30975 22.3716 8.17624C21.5678 7.69885 20.7055 7.33316 19.8073 7.08881C19.5578 7.02088 19.3342 6.87707 19.1662 6.67638C18.9982 6.4757 18.8936 6.22758 18.8663 5.9648L18.5218 2.61194H15.6793L15.3313 5.96916C15.3039 6.23204 15.1992 6.48025 15.0311 6.68094C14.8629 6.88164 14.6392 7.02538 14.3895 7.09316C13.4919 7.33862 12.6304 7.7055 11.8277 8.18408C11.6038 8.31758 11.3455 8.37817 11.0872 8.3578C10.8288 8.33743 10.5826 8.23705 10.3814 8.07003L7.81794 5.94478L5.81006 8.00037L7.8843 10.6262C8.04738 10.8323 8.14532 11.0843 8.16507 11.3486C8.18483 11.613 8.12547 11.8773 7.9949 12.1063C7.52876 12.9291 7.17143 13.8115 6.93226 14.7305C6.86588 14.9859 6.72535 15.2146 6.52924 15.3865C6.33313 15.5585 6.09067 15.6655 5.83389 15.6934L2.55323 16.0504V18.9566L5.83389 19.3136C6.09067 19.3415 6.33313 19.4485 6.52924 19.6204C6.72535 19.7923 6.86588 20.0211 6.93226 20.2765C7.17137 21.1945 7.52842 22.076 7.99405 22.898C8.12462 23.127 8.18398 23.3913 8.16422 23.6557C8.14447 23.9201 8.04653 24.1721 7.88345 24.3781L5.81006 26.9996L7.81879 29.0552L10.3856 26.9335C10.5869 26.7664 10.8331 26.6661 11.0914 26.6457C11.3498 26.6253 11.6081 26.6859 11.832 26.8194C12.6354 27.2969 13.4975 27.6626 14.3954 27.9068C14.6451 27.9746 14.8689 28.1184 15.037 28.3191C15.2052 28.5198 15.3099 28.768 15.3372 29.0308L15.6793 32.3881Z" fill="#464646"/>
<path d="M17.1009 25.454C15.5636 25.4538 14.0609 24.9872 12.7827 24.113C11.5046 23.2389 10.5085 21.9966 9.92029 20.5431C9.33211 19.0897 9.1783 17.4903 9.47832 15.9474C9.77833 14.4045 10.5187 12.9873 11.6058 11.875C12.6929 10.7626 14.0778 10.0052 15.5856 9.69831C17.0934 9.39147 18.6562 9.54904 20.0764 10.1511C21.4967 10.7532 22.7106 11.7727 23.5646 13.0807C24.4187 14.3888 24.8745 15.9266 24.8745 17.4998C24.8723 19.6088 24.0525 21.6308 22.5951 23.122C21.1378 24.6132 19.1618 25.4519 17.1009 25.454ZM17.1009 12.1575C16.0684 12.1576 15.0591 12.4711 14.2008 13.0582C13.3424 13.6454 12.6734 14.4798 12.2784 15.456C11.8834 16.4322 11.7801 17.5063 11.9817 18.5425C12.1832 19.5788 12.6805 20.5306 13.4106 21.2776C14.1407 22.0247 15.0709 22.5334 16.0836 22.7395C17.0962 22.9455 18.1458 22.8397 19.0997 22.4353C20.0536 22.0309 20.8688 21.3462 21.4424 20.4677C22.016 19.5892 22.3222 18.5563 22.3222 17.4998C22.3206 16.0832 21.77 14.7252 20.7911 13.7237C19.8122 12.7221 18.4851 12.1589 17.1009 12.1575Z" fill="#464646"/>
</svg>
